<svg width="94" height="94" fill="none" xmlns="http://www.w3.org/2000/svg"><g filter="url(#filter0_d_1_1130)"><rect x="25" y="25" width="43.846" height="43.846" rx="21.923" fill="#fff"/></g><path d="M40.53 42.3c.667 0 1.246.11 1.738.33.498.22.88.535 1.144.946.264.41.396.898.396 1.463 0 .557-.132 1.045-.396 1.463-.264.41-.646.726-1.144.946-.492.22-1.071.33-1.738.33h-1.738V50h-1.43v-7.7h3.168zm-.066 4.268c.623 0 1.096-.132 1.419-.396.322-.264.484-.642.484-1.133s-.162-.869-.484-1.133c-.323-.264-.796-.396-1.42-.396h-1.671v3.058h1.672zm10.811-4.73V50h-1.32v-.759c-.227.279-.51.488-.847.627a2.79 2.79 0 01-1.1.209 3.127 3.127 0 01-1.529-.374c-.447-.25-.8-.601-1.056-1.056-.257-.462-.385-.99-.385-1.584 0-.594.129-1.118.385-1.573a2.707 2.707 0 011.056-1.056c.455-.25.965-.374 1.53-.374.388 0 .743.066 1.066.198.323.132.598.33.825.594v-3.014h1.375zM48.173 48.9a1.8 1.8 0 00.891-.22c.264-.154.473-.37.627-.649.154-.279.231-.601.231-.968s-.077-.69-.23-.968a1.592 1.592 0 00-.628-.638 1.735 1.735 0 00-.89-.231c-.33 0-.628.077-.892.231-.264.147-.473.36-.627.638a1.969 1.969 0 00-.23.968c0 .367.076.69.23.968.154.279.363.495.627.649a1.8 1.8 0 00.891.22zm7.728-6.028c-.58 0-.87.315-.87.946v.352h1.618v1.1h-1.573V50H53.7v-4.73h-.968v-1.1h.968v-.374c0-.63.183-1.126.55-1.485.367-.367.884-.55 1.55-.55.529 0 .943.106 1.244.319l-.385 1.034a1.314 1.314 0 00-.76-.242z" fill="#12C868"/><defs><filter id="filter0_d_1_1130" x="0" y="0" width="93.846" height="93.847" filterUnits="userSpaceOnUse" color-interpolation-filters="sRGB"><feFlood flood-opacity="0" result="BackgroundImageFix"/><feColorMatrix in="SourceAlpha" values="0 0 0 0 0 0 0 0 0 0 0 0 0 0 0 0 0 0 127 0" result="hardAlpha"/><feOffset/><feGaussianBlur stdDeviation="12.5"/><feComposite in2="hardAlpha" operator="out"/><feColorMatrix values="0 0 0 0 0 0 0 0 0 0 0 0 0 0 0 0 0 0 0.05 0"/><feBlend in2="BackgroundImageFix" result="effect1_dropShadow_1_1130"/><feBlend in="SourceGraphic" in2="effect1_dropShadow_1_1130" result="shape"/></filter></defs></svg>